<?xml version="1.0" encoding="UTF-8"?>
<svg id="Layer_2" data-name="Layer 2" xmlns="http://www.w3.org/2000/svg" viewBox="0 0 442.51 68.25">
  <g id="Layer_1-2" data-name="Layer 1">
    <g>
      <path d="M46.24,23.12v43.67h-15.41V23.12c0-5.14-2.57-7.71-7.71-7.71s-7.71,2.57-7.71,7.71v43.67H0V23.12C0,7.71,7.71,0,23.12,0c8.56,0,13.7,2.57,15.41,7.71,1.71-5.14,6.85-7.71,15.41-7.71,15.41,0,23.12,7.71,23.12,23.12v43.67h-15.41V23.12c0-5.14-2.57-7.71-7.71-7.71s-7.71,2.57-7.71,7.71Z" fill="#2b2729" stroke-width="0"/>
      <path d="M115.59,1.46h15.41v41.1c0,17.13-8.05,25.69-24.15,25.69s-24.66-8.56-24.66-25.69V1.46h15.41v41.1c0,6.85,3.08,10.27,9.25,10.27,5.82,0,8.73-3.42,8.73-10.27V1.46Z" fill="#2b2729" stroke-width="0"/>
      <path d="M182.38,23.12v43.67h-15.41V23.12c0-5.14-2.57-7.71-7.71-7.71s-7.71,2.57-7.71,7.71v43.67h-15.41V23.12c0-15.41,7.71-23.12,23.12-23.12,8.56,0,13.7,2.57,15.41,7.71,1.71-5.14,6.85-7.71,15.41-7.71,15.41,0,23.12,7.71,23.12,23.12v43.67h-15.41V23.12c0-5.14-2.57-7.71-7.71-7.71s-7.71,2.57-7.71,7.71Z" fill="#2b2729" stroke-width="0"/>
      <path d="M251.74,1.46h15.41v41.1c0,17.13-8.05,25.69-24.15,25.69s-24.66-8.56-24.66-25.69V1.46h15.41v41.1c0,6.85,3.08,10.27,9.25,10.27,5.82,0,8.73-3.42,8.73-10.27V1.46Z" fill="#2b2729" stroke-width="0"/>
      <path d="M305.68,25.69c0-6.85-2.91-10.27-8.73-10.27-6.16,0-9.25,3.42-9.25,10.27v41.1h-15.41V25.69c0-17.12,8.22-25.69,24.66-25.69s24.15,8.56,24.15,25.69v41.1h-15.41V25.69Z" fill="#2b2729" stroke-width="0"/>
      <path d="M341.64,0c22.26,0,33.39,11.13,33.39,33.39s-11.13,33.39-33.39,33.39h-15.41V0h15.41ZM341.64,15.41v35.96c11.99,0,17.98-5.99,17.98-17.98s-5.99-17.98-17.98-17.98Z" fill="#2b2729" stroke-width="0"/>
      <path d="M411.34,15.79c9.13,0,16.55,7.43,16.55,16.55s-7.43,16.55-16.55,16.55-16.55-7.43-16.55-16.55,7.43-16.55,16.55-16.55M411.34,1.18c-17.21,0-31.17,13.95-31.17,31.17s13.95,31.17,31.17,31.17,31.17-13.95,31.17-31.17-13.95-31.17-31.17-31.17h0Z" fill="#d66b70" stroke-width="0"/>
      <path d="M393.1,16.76c1.15-1.37,2.81-3.62,7.43-6.15" fill="#fff" stroke="#fff" stroke-linecap="round" stroke-miterlimit="10" stroke-width="4"/>
      <path d="M430.99,46.6c-1.09,1.43-2.64,3.75-7.12,6.49" fill="#fff" stroke="#fff" stroke-linecap="round" stroke-miterlimit="10" stroke-width="4"/>
    </g>
  </g>
</svg>